<svg xmlns="http://www.w3.org/2000/svg" style="display: none;">
    
    <symbol id="sun" viewBox="-2 -2 24 24">
        <path d='M10 13a3 3 0 1 0 0-6 3 3 0 0 0 0 6zm0 2a5 5 0 1 1 0-10 5 5 0 0 1 0 10zm0-15a1 1 0 0 1 1 1v2a1 1 0 0 1-2 0V1a1 1 0 0 1 1-1zm0 16a1 1 0 0 1 1 1v2a1 1 0 0 1-2 0v-2a1 1 0 0 1 1-1zM1 9h2a1 1 0 1 1 0 2H1a1 1 0 0 1 0-2zm16 0h2a1 1 0 0 1 0 2h-2a1 1 0 0 1 0-2zm.071-6.071a1 1 0 0 1 0 1.414l-1.414 1.414a1 1 0 1 1-1.414-1.414l1.414-1.414a1 1 0 0 1 1.414 0zM5.757 14.243a1 1 0 0 1 0 1.414L4.343 17.07a1 1 0 1 1-1.414-1.414l1.414-1.414a1 1 0 0 1 1.414 0zM4.343 2.929l1.414 1.414a1 1 0 0 1-1.414 1.414L2.93 4.343A1 1 0 0 1 4.343 2.93zm11.314 11.314l1.414 1.414a1 1 0 0 1-1.414 1.414l-1.414-1.414a1 1 0 1 1 1.414-1.414z'/>
    </symbol>

    <symbol id="sun-f" viewBox="-2 -1.5 24 24">
        <path d='M10 15.565a5 5 0 1 1 0-10 5 5 0 0 1 0 10zm0-15a1 1 0 0 1 1 1v2a1 1 0 0 1-2 0v-2a1 1 0 0 1 1-1zm0 16a1 1 0 0 1 1 1v2a1 1 0 0 1-2 0v-2a1 1 0 0 1 1-1zm-9-7h2a1 1 0 1 1 0 2H1a1 1 0 0 1 0-2zm16 0h2a1 1 0 0 1 0 2h-2a1 1 0 0 1 0-2zm.071-6.071a1 1 0 0 1 0 1.414l-1.414 1.414a1 1 0 1 1-1.414-1.414l1.414-1.414a1 1 0 0 1 1.414 0zM5.757 14.808a1 1 0 0 1 0 1.414l-1.414 1.414a1 1 0 1 1-1.414-1.414l1.414-1.414a1 1 0 0 1 1.414 0zM4.343 3.494l1.414 1.414a1 1 0 0 1-1.414 1.414L2.93 4.908a1 1 0 0 1 1.414-1.414zm11.314 11.314l1.414 1.414a1 1 0 0 1-1.414 1.414l-1.414-1.414a1 1 0 1 1 1.414-1.414z' />
    </symbol>

    <symbol id="moon" viewBox="-4 -2 24 24">
        <path d='M2 10c0 4.43 3.478 8 7.742 8 .658 0 1.302-.085 1.922-.248-2.996-2.2-4.896-5.786-4.896-9.752 0-2.09.527-4.095 1.489-5.853C4.699 2.863 2 6.097 2 10zm6.768-2c0 4.632 3.068 8.528 7.232 9.665A9.555 9.555 0 0 1 9.742 20C4.362 20 0 15.523 0 10S4.362 0 9.742 0c.868 0 1.71.117 2.511.335A10.086 10.086 0 0 0 8.768 8z'/>
    </symbol>

    <symbol id="moon-f" viewBox="-4 -2 24 24">
        <path d='M12.253.335A10.086 10.086 0 0 0 8.768 8c0 4.632 3.068 8.528 7.232 9.665A9.555 9.555 0 0 1 9.742 20C4.362 20 0 15.523 0 10S4.362 0 9.742 0c.868 0 1.71.117 2.511.335z' />
    </symbol>

    <symbol id="users" viewBox="0 0 24 24">
        <path d="M17 21v-2a4 4 0 0 0-4-4H5a4 4 0 0 0-4 4v2"></path><circle cx="9" cy="7" r="4"></circle><path d="M23 21v-2a4 4 0 0 0-3-3.87"></path><path d="M16 3.13a4 4 0 0 1 0 7.75"></path>
    </symbol>

    <symbol id="github" viewBox="0 0 24 24">
        <path d="M9 19c-5 1.5-5-2.5-7-3m14 6v-3.87a3.37 3.37 0 0 0-.94-2.61c3.14-.35 6.44-1.54 6.44-7A5.44 5.44 0 0 0 20 4.77 5.07 5.07 0 0 0 19.91 1S18.73.65 16 2.48a13.38 13.38 0 0 0-7 0C6.27.65 5.09 1 5.09 1A5.07 5.07 0 0 0 5 4.77a5.44 5.44 0 0 0-1.5 3.78c0 5.42 3.3 6.61 6.44 7A3.37 3.37 0 0 0 9 18.13V22"></path>
    </symbol>

    <symbol id="map-pin" viewBox="0 0 24 24">
        <path d="M21 10c0 7-9 13-9 13s-9-6-9-13a9 9 0 0 1 18 0z"></path><circle cx="12" cy="10" r="3"></circle>
    </symbol>

    <symbol id="linkedin" viewBox="0 0 24 24">
        <path d="M16 8a6 6 0 0 1 6 6v7h-4v-7a2 2 0 0 0-2-2 2 2 0 0 0-2 2v7h-4v-7a6 6 0 0 1 6-6z"></path><rect x="2" y="9" width="4" height="12"></rect><circle cx="4" cy="4" r="2"></circle>
    </symbol>

    <symbol id="fork" viewBox="-4 -2 24 24">
       <path d='M8 18a1 1 0 1 0 0-2 1 1 0 0 0 0 2zm1.033-3.817A3.001 3.001 0 1 1 7 14.17v-1.047c0-.074.003-.148.008-.221a1 1 0 0 0-.462-.637L3.46 10.42A3 3 0 0 1 2 7.845V5.829a3.001 3.001 0 1 1 2 0v2.016a1 1 0 0 0 .487.858l3.086 1.846a3 3 0 0 1 .443.324 3 3 0 0 1 .444-.324l3.086-1.846a1 1 0 0 0 .487-.858V5.841A3.001 3.001 0 0 1 13 0a3 3 0 0 1 1.033 5.817v2.028a3 3 0 0 1-1.46 2.575l-3.086 1.846a1 1 0 0 0-.462.637c.005.073.008.147.008.22v1.06zM3 4a1 1 0 1 0 0-2 1 1 0 0 0 0 2zm10 0a1 1 0 1 0 0-2 1 1 0 0 0 0 2z'/>
    </symbol>

    <symbol id="star" viewBox="0 0 24 24">
        <polygon points="12 2 15.09 8.26 22 9.27 17 14.14 18.18 21.02 12 17.77 5.82 21.02 7 14.14 2 9.27 8.91 8.26 12 2"></polygon>
    </symbol>

    <symbol id="alien" viewBox="-3 -1.5 24 24">
        <path d='M9 20.858c-4.5 0-9-6.03-9-11a9 9 0 1 1 18 0c0 4.97-4.5 11-9 11zm-1.974-6.181c.529-.192 1.42-1.946.853-3.503-.566-1.557-2.399-2.32-2.905-2.135-.506.184-1.42 1.946-.853 3.503.566 1.557 2.376 2.327 2.905 2.135zm3.948 0c.529.192 2.339-.578 2.905-2.135.567-1.557-.347-3.319-.853-3.503-.506-.185-2.339.578-2.905 2.135-.567 1.557.324 3.31.853 3.503z' />
    </symbol>

    <symbol id="alien-f" viewBox="-3 -1.5 24 24">
        <path d='M9 20.858c-4.5 0-9-6.03-9-11a9 9 0 1 1 18 0c0 4.97-4.5 11-9 11zm-1.974-6.181c.529-.192 1.42-1.946.853-3.503-.566-1.557-2.399-2.32-2.905-2.135-.506.184-1.42 1.946-.853 3.503.566 1.557 2.376 2.327 2.905 2.135zm3.948 0c.529.192 2.339-.578 2.905-2.135.567-1.557-.347-3.319-.853-3.503-.506-.185-2.339.578-2.905 2.135-.567 1.557.324 3.31.853 3.503z' />
    </symbol>

    <symbol id="heart" viewBox="-2 -4 24 24">
        <path d='M3.636 7.208L10 13.572l6.364-6.364a3 3 0 1 0-4.243-4.243L10 5.086l-2.121-2.12a3 3 0 0 0-4.243 4.242zM9.293 1.55l.707.707.707-.707a5 5 0 1 1 7.071 7.071l-7.07 7.071a1 1 0 0 1-1.415 0l-7.071-7.07a5 5 0 1 1 7.07-7.071z'/>
    </symbol>

    <symbol id="heart-f" viewBox="-3 -1.5 24 24">
        <path d='M9.293 1.55l.707.708.707-.707a5 5 0 1 1 7.071 7.071l-7.07 7.071a1 1 0 0 1-1.415 0L2.222 8.622a5 5 0 1 1 7.07-7.071z' />
    </symbol>

    <symbol id="ghost" viewBox="-4 -2 24 24">
        <path d='M8 0a8 8 0 0 1 8 8v12l-4.919-1-3.08 1-2.992-1L0 20V8a8 8 0 0 1 8-8zm6 8A6 6 0 0 0 2 8v9.561l3.138-.626 2.871.96 2.955-.96 3.036.618V8zm-8.5 2a1.5 1.5 0 1 1 0-3 1.5 1.5 0 0 1 0 3zm5 0a1.5 1.5 0 1 1 0-3 1.5 1.5 0 0 1 0 3z'/>
    </symbol>

    <symbol id="ghost-f" viewBox="-4 -2 24 24">
        <path d='M8 0a8 8 0 0 1 8 8v12l-4.919-1-3.08 1-2.992-1L0 20V8a8 8 0 0 1 8-8zM5.5 10a1.5 1.5 0 1 0 0-3 1.5 1.5 0 0 0 0 3zm5 0a1.5 1.5 0 1 0 0-3 1.5 1.5 0 0 0 0 3z' />
    </symbol>

    <symbol id="link" viewBox="0 0 24 24">
        <path d="M10 13a5 5 0 0 0 7.54.54l3-3a5 5 0 0 0-7.07-7.07l-1.72 1.71"></path><path d="M14 11a5 5 0 0 0-7.54-.54l-3 3a5 5 0 0 0 7.07 7.07l1.71-1.71"></path>
    </symbol>

    <symbol id="twitter" viewBox="0 0 24 24">
        <path d="M23 3a10.9 10.9 0 0 1-3.14 1.53 4.48 4.48 0 0 0-7.86 3v1A10.66 10.66 0 0 1 3 4s-4 9 5 13a11.64 11.64 0 0 1-7 2c9 5 20 0 20-11.5a4.5 4.5 0 0 0-.08-.83A7.72 7.72 0 0 0 23 3z"></path>
    </symbol>

    <symbol id="gitlab" viewBox="0 0 24 24">
        <path d="M22.65 14.39L12 22.13 1.35 14.39a.84.84 0 0 1-.3-.94l1.22-3.78 2.44-7.51A.42.42 0 0 1 4.82 2a.43.43 0 0 1 .58 0 .42.42 0 0 1 .11.18l2.44 7.49h8.1l2.44-7.51A.42.42 0 0 1 18.6 2a.43.43 0 0 1 .58 0 .42.42 0 0 1 .11.18l2.44 7.51L23 13.45a.84.84 0 0 1-.35.94z"></path>
    </symbol>

</svg>